# xmcd CD database file
# Generated: Mit Jul 14 20:11:16 2004 by KSCD
# 
# Track frame offsets:
#       150
#       18219
#       35250
#       54283
#       78906
#       102945
#       122919
#       140387
#
# Disc length: 2265 seconds
#
# Revision: 9
# Processed by: cddbd v1.5.1PL0 Copyright (c) Steve Scherf et al.
# Submitted via: Kscd 1.3.3
#
DISCID=5908d708
DTITLE=Janis Joplin - I Got Dem Ol' Kozmic Blues Again Mama!
DYEAR=1969
DGENRE=Blues
TTITLE0=Try (Just a Little Bit Harder)
TTITLE1=Maybe
TTITLE2=One Good Man
TTITLE3=As Good As You've Been to this World
TTITLE4=To Love Somebody
TTITLE5=Kozmic Blues
TTITLE6=Little Girl Blue
TTITLE7=Work Me, Lord!
EXTD=YEAR: 1969 ID3G: 0
EXTT0=
EXTT1=
EXTT2=
EXTT3=
EXTT4=
EXTT5=
EXTT6=
EXTT7=
PLAYORDER=
